# xmcd
#
# Track frame offsets:
# 150
# 7586
# 27122
# 47880
# 69055
# 94987
# 110361
# 126628
# 140006
# 160043
# 175038
# 189421
# 204237
#
# Disc length: 3001 seconds
#
#
# Revision: 0
# Processed by: cddbd v1.5.1PL0 Copyright (c) Steve Scherf et al.
# Submitted via: FreeRIP 2.942 
#
DISCID=a20bb70d
DTITLE=Subculture Deviants - The Energon Cube
DYEAR=1998
DGENRE=Hip-Hop
TTITLE0=Intro
TTITLE1=Antihalation
TTITLE2=Hip Hop?
TTITLE3=Awake
TTITLE4=Subculture Deviants
TTITLE5=The Matrix
TTITLE6=Microphones
TTITLE7=Justone Time
TTITLE8=Pharisees, Sadduccees, and Wack MC's
TTITLE9=Prepare Yourself
TTITLE10=Tech Professors
TTITLE11=The World...
TTITLE12=Bonus Track
EXTD=
EXTT0=
EXTT1=
EXTT2=
EXTT3=
EXTT4=
EXTT5=
EXTT6=
EXTT7=
EXTT8=
EXTT9=
EXTT10=
EXTT11=
EXTT12=
PLAYORDER=
